<svg width="373" height="47" viewBox="0 0 373 47" fill="none" xmlns="http://www.w3.org/2000/svg">
<path d="M54.2367 11.029C52.2073 1.70841 42.1509 -2.87906 33.8288 2.1128C31.5182 3.49846 29.7816 5.52405 27.8804 7.38947L27.3151 7.93229L26.1308 6.6749C25.3125 5.80379 24.4464 4.8863 23.6064 4.13839C9.45554 -8.45939 -8.46709 10.4 4.45013 24.7066L23.7731 44.0834C23.7731 44.0834 24.0905 44.4284 24.5109 44.8234L25.0828 45.3973C26.4729 46.4438 28.1486 46.5409 29.5279 45.4031C29.5424 45.3879 29.5569 45.372 29.5714 45.3567C29.6555 45.2792 29.696 45.2292 29.696 45.2292L29.7033 45.2212C29.7156 45.2089 29.7279 45.1966 29.7395 45.1835L32.63 42.1861C38.3029 36.4616 44.4252 31.003 49.8155 25.1175C53.5228 21.07 55.4471 16.5898 54.236 11.0283L54.2367 11.029Z" fill="url(#paint0_linear_6932_95200)"/>
<path d="M4.86109 25.119C6.62305 25.8981 10.3507 27.3388 13.6021 27.2207C13.6021 27.2207 20.1397 27.091 24.6595 24.0486C24.6595 24.0486 29.8251 20.7642 35.3943 15.9223C35.3943 15.9223 40.8825 11.3225 46.2097 10.0311C46.2097 10.0311 49.8278 9.05198 53.725 9.22736C50.8715 1.13878 41.5949 -2.54569 33.8288 2.1128C31.5182 3.49846 29.7816 5.52405 27.8804 7.38948L27.3151 7.93229L26.1308 6.6749C25.3125 5.80379 24.4464 4.8863 23.6063 4.13839C9.45554 -8.4594 -8.46709 10.4 4.45013 24.7066L4.86181 25.119H4.86109Z" fill="#991BFF"/>
<path d="M345.387 46.2235C341.535 46.2235 338.397 45.3287 335.972 43.539C333.547 41.7493 332.061 39.2293 331.513 35.9791L337.79 34.9608C338.182 36.6888 339.081 38.0567 340.489 39.0647C341.917 40.0522 343.686 40.5459 345.798 40.5459C347.715 40.5459 349.21 40.1344 350.286 39.3116C351.381 38.4887 351.929 37.3573 351.929 35.9173C351.929 35.0739 351.733 34.3951 351.342 33.8808C350.97 33.3459 350.178 32.8419 348.966 32.3688C347.754 31.8957 345.906 31.3094 343.422 30.61C340.704 29.8694 338.543 29.0774 336.94 28.234C335.356 27.37 334.222 26.3723 333.537 25.2409C332.872 24.0889 332.54 22.7003 332.54 21.0752C332.54 19.0592 333.048 17.3004 334.065 15.7987C335.082 14.297 336.51 13.1347 338.348 12.3119C340.205 11.489 342.376 11.0776 344.86 11.0776C347.284 11.0776 349.445 11.4787 351.342 12.281C353.239 13.0833 354.774 14.225 355.947 15.7061C357.12 17.1667 357.824 18.8844 358.059 20.8592L351.782 22.0626C351.567 20.4581 350.853 19.1929 349.641 18.2672C348.428 17.3415 346.854 16.8375 344.918 16.7553C343.06 16.673 341.555 17.0021 340.401 17.7427C339.247 18.4627 338.67 19.4604 338.67 20.7358C338.67 21.4763 338.886 22.1038 339.316 22.618C339.766 23.1323 340.626 23.626 341.897 24.0992C343.168 24.5723 345.045 25.138 347.529 25.7963C350.188 26.5163 352.3 27.3186 353.864 28.2031C355.429 29.0671 356.543 30.106 357.208 31.3197C357.893 32.5128 358.235 33.9631 358.235 35.6705C358.235 38.9619 357.091 41.5436 354.803 43.4156C352.535 45.2875 349.396 46.2235 345.387 46.2235Z" fill="#DCDCDC"/>
<path d="M314.08 46.2544C310.931 46.2544 308.164 45.5344 305.779 44.0944C303.412 42.6338 301.565 40.6076 300.235 38.0156C298.925 35.4031 298.27 32.3791 298.27 28.9437C298.27 25.3026 298.915 22.1449 300.205 19.4707C301.516 16.7964 303.334 14.729 305.661 13.2684C307.988 11.8079 310.697 11.0776 313.786 11.0776C317.013 11.0776 319.76 11.8696 322.029 13.4536C324.297 15.017 325.988 17.249 327.103 20.1495C328.237 23.05 328.687 26.4957 328.452 30.4865H322.322V28.1414C322.283 24.274 321.579 21.4146 320.21 19.5632C318.861 17.7118 316.798 16.7861 314.021 16.7861C310.951 16.7861 308.643 17.8044 307.099 19.8409C305.554 21.8775 304.781 24.8192 304.781 28.666C304.781 32.3277 305.554 35.1665 307.099 37.1825C308.643 39.1779 310.873 40.1756 313.786 40.1756C315.703 40.1756 317.355 39.723 318.743 38.8179C320.151 37.8922 321.246 36.5756 322.029 34.8682L328.042 36.8739C326.81 39.8567 324.942 42.171 322.439 43.8167C319.936 45.4418 317.15 46.2544 314.08 46.2544ZM302.787 30.4865V25.4569H325.402V30.4865H302.787Z" fill="#DCDCDC"/>
<path d="M296.543 45.3287C294.548 45.7401 292.593 45.915 290.676 45.8532C288.76 45.7915 287.049 45.4007 285.543 44.6807C284.037 43.9607 282.903 42.8293 282.141 41.2864C281.456 39.9082 281.085 38.5093 281.026 37.0899C280.987 35.6499 280.967 34.0248 280.967 32.2145V2.74626H287.127V31.906C287.127 33.2431 287.137 34.4054 287.156 35.3928C287.195 36.3802 287.401 37.2133 287.772 37.8922C288.476 39.1676 289.591 39.8979 291.116 40.083C292.661 40.2476 294.47 40.1756 296.543 39.867V45.3287ZM274.896 17.1873V12.0033H296.543V17.1873H274.896Z" fill="#DCDCDC"/>
<path d="M265.236 6.54165V0.277713H271.367V6.54165H265.236ZM265.236 45.3287V12.0033H271.367V45.3287H265.236Z" fill="#DCDCDC"/>
<path d="M243.967 46.2544C240.937 46.2544 238.199 45.7092 235.755 44.619C233.33 43.5081 231.325 41.9344 229.741 39.8979C228.177 37.8408 227.16 35.4031 226.691 32.5848L233.085 31.5665C233.731 34.2819 235.08 36.4008 237.133 37.923C239.186 39.4247 241.582 40.1756 244.32 40.1756C246.021 40.1756 247.585 39.8979 249.013 39.3424C250.44 38.7665 251.584 37.9539 252.445 36.9048C253.324 35.8351 253.764 34.5596 253.764 33.0785C253.764 32.2762 253.628 31.5665 253.354 30.9494C253.1 30.3323 252.738 29.7974 252.269 29.3448C251.819 28.8717 251.261 28.4706 250.597 28.1414C249.951 27.7917 249.238 27.4934 248.455 27.2466L237.632 23.8832C236.576 23.554 235.5 23.1323 234.405 22.618C233.31 22.0832 232.303 21.3941 231.384 20.5506C230.484 19.6867 229.751 18.6272 229.184 17.3724C228.617 16.097 228.333 14.5541 228.333 12.7439C228.333 10.0079 228.998 7.69364 230.328 5.80109C231.677 3.88796 233.496 2.44797 235.784 1.48113C238.072 0.493709 240.633 0 243.469 0C246.324 0.0411419 248.876 0.575994 251.125 1.60456C253.393 2.63312 255.27 4.11424 256.756 6.04794C258.262 7.96106 259.298 10.2856 259.866 13.0216L253.295 14.1941C253.002 12.5279 252.376 11.0982 251.418 9.90504C250.46 8.69134 249.286 7.76564 247.898 7.12793C246.51 6.46965 245.004 6.13022 243.381 6.10965C241.816 6.06851 240.379 6.31536 239.069 6.85021C237.778 7.38507 236.742 8.13592 235.96 9.10276C235.197 10.0696 234.816 11.1805 234.816 12.4353C234.816 13.6696 235.158 14.6673 235.843 15.4284C236.527 16.1895 237.368 16.7964 238.365 17.249C239.382 17.681 240.389 18.041 241.386 18.329L249.189 20.6432C250.166 20.9312 251.271 21.3221 252.503 21.8158C253.755 22.2889 254.957 22.9575 256.111 23.8215C257.284 24.6855 258.252 25.8374 259.015 27.2774C259.778 28.6968 260.159 30.4865 260.159 32.6465C260.159 34.8888 259.729 36.8636 258.868 38.571C258.008 40.2579 256.825 41.6773 255.319 42.8293C253.833 43.9607 252.112 44.8144 250.157 45.3904C248.201 45.9664 246.138 46.2544 243.967 46.2544Z" fill="#DCDCDC"/>
<path d="M199.478 46.2544C196.33 46.2544 193.563 45.5344 191.177 44.0944C188.811 42.6338 186.963 40.6076 185.633 38.0156C184.323 35.4031 183.668 32.3791 183.668 28.9437C183.668 25.3026 184.313 22.1449 185.604 19.4707C186.914 16.7964 188.733 14.729 191.06 13.2684C193.387 11.8079 196.095 11.0776 199.185 11.0776C202.411 11.0776 205.159 11.8696 207.427 13.4536C209.695 15.017 211.387 17.249 212.501 20.1495C213.636 23.05 214.085 26.4957 213.851 30.4865H207.72V28.1414C207.681 24.274 206.977 21.4146 205.608 19.5632C204.259 17.7118 202.196 16.7861 199.419 16.7861C196.349 16.7861 194.042 17.8044 192.497 19.8409C190.952 21.8775 190.18 24.8192 190.18 28.666C190.18 32.3277 190.952 35.1665 192.497 37.1825C194.042 39.1779 196.271 40.1756 199.185 40.1756C201.101 40.1756 202.753 39.723 204.142 38.8179C205.55 37.8922 206.645 36.5756 207.427 34.8682L213.44 36.8739C212.208 39.8567 210.341 42.171 207.838 43.8167C205.335 45.4418 202.548 46.2544 199.478 46.2544ZM188.185 30.4865V25.4569H210.8V30.4865H188.185Z" fill="#DCDCDC"/>
<path d="M165.332 45.3287L153.834 12.0033H160.023L168.441 37.2442L176.86 12.0033H183.049L171.551 45.3287H165.332Z" fill="#DCDCDC"/>
<path d="M135.841 45.3287V12.0033H141.296V20.0878L140.534 19.0387C140.925 17.969 141.433 16.9918 142.059 16.1073C142.685 15.2021 143.408 14.4616 144.23 13.8856C145.031 13.2684 145.921 12.7953 146.899 12.4662C147.896 12.1164 148.913 11.9107 149.949 11.849C150.986 11.7667 151.983 11.8182 152.941 12.0033V18.0512C151.905 17.7632 150.751 17.681 149.48 17.8044C148.228 17.9278 147.075 18.3495 146.019 19.0695C145.022 19.7484 144.23 20.5712 143.643 21.5381C143.076 22.5049 142.665 23.5849 142.411 24.778C142.157 25.9506 142.03 27.1952 142.03 28.5117V45.3287H135.841Z" fill="#DCDCDC"/>
<path d="M116.647 46.2544C113.498 46.2544 110.731 45.5344 108.346 44.0944C105.98 42.6338 104.132 40.6076 102.802 38.0156C101.492 35.4031 100.837 32.3791 100.837 28.9437C100.837 25.3026 101.482 22.1449 102.773 19.4707C104.083 16.7964 105.901 14.729 108.228 13.2684C110.555 11.8079 113.264 11.0776 116.353 11.0776C119.58 11.0776 122.327 11.8696 124.596 13.4536C126.864 15.017 128.556 17.249 129.67 20.1495C130.804 23.05 131.254 26.4957 131.02 30.4865H124.889V28.1414C124.85 24.274 124.146 21.4146 122.777 19.5632C121.428 17.7118 119.365 16.7861 116.588 16.7861C113.518 16.7861 111.211 17.8044 109.666 19.8409C108.121 21.8775 107.348 24.8192 107.348 28.666C107.348 32.3277 108.121 35.1665 109.666 37.1825C111.211 39.1779 113.44 40.1756 116.353 40.1756C118.27 40.1756 119.922 39.723 121.311 38.8179C122.719 37.8922 123.814 36.5756 124.596 34.8682L130.609 36.8739C129.377 39.8567 127.509 42.171 125.006 43.8167C122.503 45.4418 119.717 46.2544 116.647 46.2544ZM105.354 30.4865V25.4569H127.969V30.4865H105.354Z" fill="#DCDCDC"/>
<path d="M81.9143 46.2544C78.8833 46.2544 76.1457 45.7092 73.7013 44.619C71.2765 43.5081 69.2722 41.9344 67.6882 39.8979C66.1239 37.8408 65.107 35.4031 64.6377 32.5848L71.0321 31.5665C71.6774 34.2819 73.0267 36.4008 75.0799 37.923C77.1332 39.4247 79.5286 40.1756 82.2663 40.1756C83.9676 40.1756 85.532 39.8979 86.9595 39.3424C88.387 38.7665 89.5309 37.9539 90.3913 36.9048C91.2713 35.8351 91.7113 34.5596 91.7113 33.0785C91.7113 32.2762 91.5744 31.5665 91.3006 30.9494C91.0464 30.3323 90.6846 29.7974 90.2153 29.3448C89.7656 28.8717 89.2083 28.4706 88.5434 28.1414C87.8981 27.7917 87.1843 27.4934 86.4021 27.2466L75.5786 23.8832C74.5226 23.554 73.4471 23.1323 72.352 22.618C71.257 22.0832 70.2499 21.3941 69.3308 20.5506C68.4313 19.6867 67.698 18.6272 67.1309 17.3724C66.5638 16.097 66.2803 14.5541 66.2803 12.7439C66.2803 10.0079 66.9452 7.69364 68.2749 5.80109C69.6242 3.88796 71.4428 2.44797 73.7307 1.48113C76.0186 0.493709 78.5802 0 81.4157 0C84.2707 0.0411419 86.8226 0.575994 89.0714 1.60456C91.3397 2.63312 93.217 4.11424 94.7031 6.04794C96.2089 7.96106 97.2453 10.2856 97.8123 13.0216L91.2419 14.1941C90.9486 12.5279 90.3229 11.0982 89.3647 9.90504C88.4065 8.69134 87.2332 7.76564 85.8448 7.12793C84.4564 6.46965 82.9507 6.13022 81.3277 6.10965C79.7633 6.06851 78.326 6.31536 77.0159 6.85021C75.7252 7.38507 74.6888 8.13592 73.9067 9.10276C73.144 10.0696 72.7627 11.1805 72.7627 12.4353C72.7627 13.6696 73.1049 14.6673 73.7893 15.4284C74.4737 16.1895 75.3146 16.7964 76.3119 17.249C77.3287 17.681 78.3358 18.041 79.3331 18.329L87.1354 20.6432C88.1132 20.9312 89.218 21.3221 90.45 21.8158C91.7015 22.2889 92.9041 22.9575 94.0578 23.8215C95.2311 24.6855 96.1991 25.8374 96.9617 27.2774C97.7243 28.6968 98.1057 30.4865 98.1057 32.6465C98.1057 34.8888 97.6755 36.8636 96.8151 38.571C95.9546 40.2579 94.7716 41.6773 93.2659 42.8293C91.7797 43.9607 90.0589 44.8144 88.1034 45.3904C86.1479 45.9664 84.0849 46.2544 81.9143 46.2544Z" fill="#DCDCDC"/>
<path d="M368.122 7.51723H368.841L370.532 11.862H370.59L372.281 7.51723H373V12.7514H372.437V8.77465H372.388L370.833 12.7514H370.289L368.734 8.77465H368.685V12.7514H368.122V7.51723Z" fill="#DCDCDC"/>
<path d="M363.46 8.07949V7.51723H367.192V8.07949H365.627V12.7514H365.025V8.07949H363.46Z" fill="#DCDCDC"/>
<defs>
<linearGradient id="paint0_linear_6932_95200" x1="49.8293" y1="11.7682" x2="18.4136" y2="53.6962" gradientUnits="userSpaceOnUse">
<stop stop-color="#6101A7"/>
<stop offset="1" stop-color="#2F8EFF"/>
</linearGradient>
</defs>
</svg>
